<svg xmlns="http://www.w3.org/2000/svg" viewBox="0 0 215.16 98.69"><defs><style>.cls-1{fill:#231f20;}</style></defs><title>dark on light</title><g id="Layer_2" data-name="Layer 2"><g id="dark_on_light" data-name="dark on light"><path class="cls-1" d="M21.2,70.78l14.36-24.9L37,43.36,47.37,25.47h2.91L38.45,45.88,37,48.41,24.09,70.78Z"/><path class="cls-1" d="M33.28,45.88,21.5,25.47h2.91L34.72,43.36l1.45,2.52,14.41,24.9H47.66L34.72,48.41Z"/><path class="cls-1" d="M159.84,63.56l1.93,1.72A23.18,23.18,0,0,1,123,48.12a22.39,22.39,0,0,1,6.78-16.4,23.22,23.22,0,0,1,32-.76l-1.93,1.76a20.6,20.6,0,0,0-34.26,15.4,20.6,20.6,0,0,0,34.26,15.44Z"/><path class="cls-1" d="M173.85,70.78V25.47h2.55V68.23H197v2.55Z"/><polygon class="cls-1" points="98.15 72.64 76.6 25.47 79.33 25.47 98.15 66.56 119.05 20.82 121.34 21.87 98.15 72.64"/><polygon class="cls-1" points="116.69 21.95 123.92 13.2 122.03 24.39 116.69 21.95"/><polygon class="cls-1" points="78.33 72.64 56.79 25.47 59.56 25.47 78.33 66.56 99.23 20.82 101.53 21.87 78.33 72.64"/><polygon class="cls-1" points="96.88 21.95 104.1 13.2 102.22 24.39 96.88 21.95"/><path class="cls-1" d="M212.63,2.53V96.16H2.53V2.53h210.1M215.16,0H0V98.69H215.16V0Z"/><path class="cls-1" d="M207.58,7.58V91.11H7.58V7.58h200m2.52-2.53H5.05V93.63H210.1V5.05Z"/></g></g></svg>